<svg width="153" height="86" viewBox="0 0 153 86" fill="none" xmlns="http://www.w3.org/2000/svg">
<path d="M137.585 54.956V32.858C137.585 32.2823 137.737 31.8251 138.042 31.4864C138.381 31.1139 138.77 30.9276 139.211 30.9276C139.685 30.9276 140.074 31.1139 140.379 31.4864C140.684 31.8251 140.836 32.2823 140.836 32.858V54.956H143.783C145.578 54.956 146.898 54.5327 147.745 53.686C148.626 52.8394 149.066 51.6371 149.066 50.0792V27.9304C149.066 27.3547 149.218 26.8975 149.523 26.5588C149.862 26.1863 150.268 26 150.742 26C151.182 26 151.555 26.1863 151.86 26.5588C152.165 26.8975 152.317 27.3547 152.317 27.9304V50.2316C152.317 51.7556 151.995 53.1103 151.352 54.2956C150.708 55.4471 149.76 56.3615 148.507 57.0389C147.254 57.7162 145.73 58.0548 143.935 58.0548H133.267C132.691 58.0548 132.217 57.9194 131.845 57.6484C131.506 57.3436 131.337 56.9542 131.337 56.48C131.337 56.0059 131.506 55.6334 131.845 55.3624C132.217 55.0915 132.691 54.956 133.267 54.956H137.585ZM107.054 58.0548V54.956H114.573C113.929 54.2448 113.404 53.3643 112.998 52.3144C112.591 51.2307 112.388 49.9099 112.388 48.352C112.388 46.32 112.812 44.5928 113.658 43.1704C114.539 41.7142 115.673 40.5966 117.062 39.8176C118.484 39.0387 119.991 38.6492 121.583 38.6492H124.377C124.953 38.6492 125.41 38.8016 125.749 39.1064C126.121 39.3774 126.307 39.733 126.307 40.1732C126.307 40.6135 126.121 40.986 125.749 41.2908C125.41 41.5956 124.953 41.748 124.377 41.748H121.735C120.855 41.748 119.94 41.9851 118.992 42.4592C118.044 42.8995 117.248 43.6107 116.605 44.5928C115.995 45.5411 115.69 46.7942 115.69 48.352C115.69 49.876 115.995 51.1291 116.605 52.1112C117.248 53.0934 118.044 53.8215 118.992 54.2956C119.94 54.7359 120.855 54.956 121.735 54.956H126.765C127.34 54.956 127.798 55.0915 128.136 55.3624C128.509 55.6334 128.695 56.0059 128.695 56.48C128.695 56.9542 128.509 57.3436 128.136 57.6484C127.798 57.9194 127.34 58.0548 126.765 58.0548H107.054ZM107.664 54.956V58.0548H107.054C105.496 58.0548 104.142 57.8009 102.99 57.2929C101.873 56.7849 100.992 56.0906 100.349 55.21C99.7051 56.0906 98.8076 56.7849 97.6561 57.2929C96.5046 57.8009 95.15 58.0548 93.5921 58.0548H92.9825V54.956H93.2873C95.1161 54.956 96.4708 54.5327 97.3513 53.686C98.2657 52.8394 98.7229 51.6371 98.7229 50.0792V40.2748C98.7229 39.6991 98.8753 39.2419 99.1801 38.9032C99.4849 38.5307 99.8744 38.3444 100.349 38.3444C100.823 38.3444 101.195 38.5307 101.466 38.9032C101.771 39.2419 101.923 39.6991 101.923 40.2748V50.0792C101.923 51.6371 102.364 52.8394 103.244 53.686C104.159 54.5327 105.53 54.956 107.359 54.956H107.664ZM100.349 61.7125C100.857 61.7125 101.263 61.9156 101.568 62.3221C101.906 62.7285 102.076 63.2703 102.076 63.9477V64.1509C102.076 64.7943 101.906 65.3193 101.568 65.7257C101.263 66.1321 100.857 66.3353 100.349 66.3353C99.8405 66.3353 99.4341 66.1321 99.1293 65.7257C98.8245 65.3193 98.6721 64.7943 98.6721 64.1509V63.9477C98.6721 63.2703 98.8245 62.7285 99.1293 62.3221C99.4341 61.9156 99.8405 61.7125 100.349 61.7125ZM86.2769 34.636C85.7689 34.636 85.3625 34.4328 85.0577 34.0264C84.7529 33.5861 84.6005 33.0612 84.6005 32.4516V32.1976C84.6005 31.5203 84.7529 30.9784 85.0577 30.572C85.3625 30.1656 85.7689 29.9624 86.2769 29.9624C86.7849 29.9624 87.1913 30.1656 87.4961 30.572C87.8348 30.9784 88.0041 31.5203 88.0041 32.1976V32.4516C88.0041 33.0612 87.8348 33.5861 87.4961 34.0264C87.1913 34.4328 86.7849 34.636 86.2769 34.636ZM93.5921 54.956L93.5921 58.0548H92.9825C91.4246 58.0548 90.07 57.8009 88.9185 57.2929C87.8009 56.751 86.9204 56.0567 86.2769 55.21C85.6334 56.0567 84.7359 56.751 83.5845 57.2929C82.433 57.8009 81.0783 58.0548 79.5205 58.0548H78.9109V54.956H79.2157C81.0445 54.956 82.3991 54.5327 83.2797 53.686C84.1941 52.8394 84.6513 51.6371 84.6513 50.0792V40.2748C84.6513 39.6991 84.8037 39.2419 85.1085 38.9032C85.4133 38.5307 85.8027 38.3444 86.2769 38.3444C86.751 38.3444 87.1236 38.5307 87.3945 38.9032C87.6993 39.2419 87.8517 39.6991 87.8517 40.2748V50.0792C87.8517 51.6371 88.292 52.8394 89.1725 53.686C90.0869 54.5327 91.4585 54.956 93.2873 54.956H93.5921ZM79.4696 54.956L80.4856 58.0548C80.5534 58.1564 80.5872 58.2581 80.5872 58.3597C80.5872 58.4613 80.5703 58.5967 80.5364 58.766L80.4856 59.6297C80.4179 60.7811 80.0792 61.9157 79.4696 63.0333C78.86 64.1509 77.9456 65.0822 76.7264 65.8273C75.5072 66.5723 73.8986 66.9449 71.9004 66.9449H64.6868C62.5871 66.9449 60.8937 66.5385 59.6068 65.7257C58.3537 64.9129 57.4393 63.8799 56.8636 62.6269C56.2879 61.3738 56 60.1207 56 58.8677V46.9296C56 46.3539 56.1524 45.8967 56.4572 45.558C56.7959 45.1855 57.1853 44.9992 57.6256 44.9992C58.0997 44.9992 58.4723 45.1855 58.7432 45.558C59.048 45.8967 59.2004 46.3539 59.2004 46.9296V58.8677C59.2004 59.2741 59.2681 59.7482 59.4036 60.2901C59.5391 60.8658 59.7931 61.4246 60.1656 61.9665C60.572 62.5083 61.1477 62.9486 61.8928 63.2873C62.6717 63.6598 63.6877 63.8461 64.9408 63.8461H71.6464C72.8656 63.8461 73.8308 63.6767 74.542 63.3381C75.2871 62.9994 75.8459 62.5761 76.2184 62.0681C76.6248 61.5939 76.8958 61.1029 77.0312 60.5949C77.2006 60.0869 77.2852 59.6635 77.2852 59.3249V58.6137C77.2852 58.2411 77.1159 58.0548 76.7772 58.0548H71.748C71.2062 58.0548 70.749 57.9024 70.3764 57.5976C70.0039 57.2928 69.8176 56.9203 69.8176 56.48C69.8176 56.0059 70.0039 55.6334 70.3764 55.3624C70.749 55.0915 71.2062 54.956 71.748 54.956H79.4696ZM64.2804 73.0409V72.7869C64.3143 72.1095 64.4497 71.6015 64.6868 71.2629C64.9577 70.9242 65.3133 70.7549 65.7536 70.7549C66.2278 70.7549 66.5834 70.9242 66.8204 71.2629C67.0914 71.6015 67.2438 72.1095 67.2776 72.7869V73.0409C67.2776 73.6843 67.1422 74.1924 66.8712 74.5649C66.6003 74.9374 66.2278 75.1237 65.7536 75.1237C65.3133 75.1237 64.9577 74.9374 64.6868 74.5649C64.4497 74.1924 64.3143 73.6843 64.2804 73.0409ZM69.3604 73.0409V72.7869C69.3604 72.1095 69.4959 71.6015 69.7668 71.2629C70.0378 70.9242 70.3934 70.7549 70.8336 70.7549C71.3078 70.7549 71.6634 70.9242 71.9004 71.2629C72.1714 71.6015 72.3238 72.1095 72.3576 72.7869V73.0409C72.3576 73.6843 72.2222 74.1924 71.9512 74.5649C71.6803 74.9374 71.3078 75.1237 70.8336 75.1237C70.3934 75.1237 70.0378 74.9374 69.7668 74.5649C69.4959 74.1924 69.3604 73.6843 69.3604 73.0409Z" fill="black"/>
<path d="M28.6323 24.6685C29.0589 24.6685 29.4047 24.3226 29.4048 23.896V21.7949C29.4048 21.3682 29.0589 21.0224 28.6323 21.0223H11.1951C10.7684 21.0223 10.4223 21.3682 10.4222 21.7949V23.896C10.4223 24.3226 10.7684 24.6685 11.1951 24.6685H28.6323ZM11.1951 27.5351C9.18532 27.5351 7.55573 25.9058 7.55566 23.896V21.7949C7.5557 19.785 9.18531 18.1558 11.1951 18.1558H28.6323C30.6421 18.1558 32.2713 19.7851 32.2714 21.7949V23.896C32.2713 25.9058 30.6421 27.535 28.6323 27.5351H11.1951Z" fill="#BD1DBF"/>
<path d="M28.6323 82.6066C29.0589 82.6066 29.4047 82.2607 29.4048 81.8341V79.733C29.4048 79.3063 29.0589 78.9605 28.6323 78.9604H11.1951C10.7684 78.9604 10.4223 79.3063 10.4222 79.733V81.8341C10.4223 82.2607 10.7684 82.6066 11.1951 82.6066H28.6323ZM11.1951 85.4732C9.18532 85.4732 7.55573 83.8439 7.55566 81.8341V79.733C7.5557 77.7232 9.18531 76.0939 11.1951 76.0939H28.6323C30.6421 76.0939 32.2713 77.7232 32.2714 79.733V81.8341C32.2713 83.8439 30.6421 85.4732 28.6323 85.4732H11.1951Z" fill="#BD1DBF"/>
<path d="M19.9135 57.0737C22.8181 57.0737 25.1728 54.7192 25.1729 51.8146C25.1729 48.91 22.8181 46.5552 19.9135 46.5552C17.0089 46.5553 14.6544 48.91 14.6544 51.8146C14.6545 54.7192 17.0089 57.0737 19.9135 57.0737ZM19.9135 60.9159C14.887 60.9159 10.8123 56.8411 10.8122 51.8146C10.8122 46.7881 14.8869 42.713 19.9135 42.713C24.9401 42.713 29.0151 46.788 29.0151 51.8146C29.0151 56.8412 24.94 60.9159 19.9135 60.9159Z" fill="#BD1DBF"/>
<path d="M30.3087 82.6065C33.9825 82.6065 36.9608 79.6285 36.9609 75.9548V27.6745C36.9609 24.0007 33.9825 21.0224 30.3087 21.0224H9.51832C5.84455 21.0224 2.86656 24.0007 2.86656 27.6745V75.9548C2.86662 79.6285 5.84459 82.6065 9.51832 82.6065H30.3087ZM9.51832 85.4731C4.26143 85.4731 5.70482e-05 81.2116 0 75.9548V27.6745C0 22.4176 4.26139 18.1558 9.51832 18.1558H30.3087C35.5657 18.1558 39.8274 22.4176 39.8274 27.6745V75.9548C39.8274 81.2116 35.5656 85.4731 30.3087 85.4731H9.51832Z" fill="#BD1DBF"/>
<path d="M38.0862 53.2477H1.74096V50.3812H38.0862V53.2477Z" fill="#BD1DBF"/>
<path d="M39.3814 3.85115C38.318 3.85115 37.4558 2.98896 37.4558 1.92558C37.4558 0.862158 38.318 4.10255e-07 39.3814 0C42.0891 -9.47042e-07 44.7703 0.533497 47.2719 1.56968C49.7734 2.60586 52.0463 4.12452 53.9609 6.03909C55.8755 7.95366 57.3941 10.2266 58.4303 12.7281C59.4665 15.2297 60 17.9109 60 20.6186C60 21.682 59.1378 22.5442 58.0744 22.5442C57.011 22.5442 56.1488 21.682 56.1488 20.6186C56.1488 18.4167 55.7154 16.2363 54.8728 14.202C54.0302 12.1677 52.7948 10.3192 51.2378 8.76217C49.6808 7.20515 47.8323 5.96982 45.798 5.12717C43.7637 4.28456 41.5833 3.85115 39.3814 3.85115Z" fill="#BD1DBF"/>
<path d="M39.3814 9.74751C38.318 9.74751 37.4558 8.88535 37.4558 7.82193C37.4558 6.75853 38.318 5.89635 39.3814 5.89635C43.2859 5.89635 47.0306 7.44756 49.7915 10.2085C52.5524 12.9694 54.1036 16.7141 54.1036 20.6186C54.1036 21.682 53.2415 22.5442 52.1781 22.5442C51.1147 22.5442 50.2525 21.682 50.2525 20.6186C50.2525 17.7354 49.1072 14.9703 47.0684 12.9316C45.0297 10.8928 42.2646 9.74751 39.3814 9.74751Z" fill="#BD1DBF"/>
<path d="M39.3814 15.6938C38.318 15.6938 37.4558 14.8316 37.4558 13.7682C37.4558 12.7048 38.318 11.8426 39.3814 11.8426C40.5339 11.8426 41.6751 12.0698 42.7399 12.5108C43.8046 12.9519 44.7722 13.5981 45.5871 14.4129C46.4019 15.2278 47.0481 16.1954 47.4892 17.2601C47.9302 18.3249 48.1574 19.4661 48.1574 20.6186C48.1574 21.682 47.2952 22.5442 46.2318 22.5442C45.1684 22.5442 44.3062 21.682 44.3062 20.6186C44.3062 19.9719 44.1788 19.3315 43.9313 18.734C43.6838 18.1365 43.3213 17.5934 42.864 17.136C42.4066 16.6787 41.8635 16.3162 41.266 16.0687C40.6685 15.8212 40.0281 15.6938 39.3814 15.6938Z" fill="#BD1DBF"/>
</svg>
